<svg width="1920" height="256" viewBox="0 0 1920 256" fill="none" xmlns="http://www.w3.org/2000/svg">
<g clip-path="url(#clip0_196_2313)">
<rect width="1920" height="256" fill="#F2F2F2"/>
<g filter="url(#filter0_f_196_2313)">
<circle cx="1408" cy="-104" r="640" fill="#FF5C00" fill-opacity="0.15"/>
</g>
<g filter="url(#filter1_f_196_2313)">
<circle cx="1380" r="540" fill="#F2F2F2" fill-opacity="0.15"/>
</g>
<g filter="url(#filter2_f_196_2313)">
<circle cx="327.161" cy="145.314" r="545.161" fill="#F2F2F2" fill-opacity="0.8"/>
</g>
<path d="M1282.48 -1225.66C889.066 -970.17 689.162 -444.822 836.862 -54.5656C984.562 335.691 1424.79 445.333 1818.21 189.844C2211.62 -65.6438 2411.53 -590.992 2263.83 -981.249C2116.13 -1371.51 1675.9 -1481.15 1282.48 -1225.66ZM1288.37 -1210.1C1673.14 -1459.97 2103.69 -1352.75 2248.15 -971.065C2248.47 -970.21 2248.73 -969.329 2249.05 -968.473C2165.7 -1105.42 2036.52 -1196.87 1879.76 -1228.11C1703.22 -1263.29 1507.62 -1218.78 1328.99 -1102.78C1150.36 -986.771 1004.9 -809.79 919.384 -604.436C843.466 -422.102 820.828 -232.073 853.561 -62.27C853.238 -63.1131 852.862 -63.904 852.543 -64.749C708.088 -446.431 903.597 -960.229 1288.37 -1210.1ZM2294.97 -730.713C2088.1 -935.004 1755.34 -945.09 1461.01 -753.951C1166.69 -562.815 971.344 -209.769 970.228 129.575C957.756 115.877 945.84 101.461 934.551 86.2669C904.223 -270.031 1101.73 -659.675 1418.77 -865.562C1735.81 -1071.45 2092.13 -1041.47 2290.25 -794.139C2292.65 -773.167 2294.2 -752.013 2294.97 -730.713ZM2294.38 -654.306C2084.93 -820.099 1776.79 -814.176 1505.01 -637.683C1233.25 -461.197 1043.1 -143.527 1017.01 175.221C1002.79 162.936 989.155 149.816 976.091 135.908C974.222 -203.176 1168.79 -557.404 1463.07 -748.513C1757.35 -939.619 2090.38 -928.009 2295.27 -720.768C2295.81 -698.727 2295.52 -676.567 2294.38 -654.306ZM2286.76 -574.272C2078.99 -702.482 1797.59 -682.833 1549.02 -521.408C1300.44 -359.981 1118.14 -78.4966 1070.25 215.732C1053.98 204.883 1038.29 193.088 1023.17 180.413C1047.06 -137.567 1236.25 -455.391 1507.37 -631.455C1778.5 -807.532 2086.16 -812.358 2293.8 -644.738C2292.35 -621.301 2290.02 -597.802 2286.76 -574.272ZM2271.31 -490.109C2070.07 -582.148 1817.42 -550.856 1593.03 -405.134C1368.63 -259.411 1196.66 -14.9489 1130.75 250.587C1112.21 241.44 1094.23 231.244 1076.84 220.012C1123.08 -72.966 1304.26 -353.738 1551.67 -514.406C1799.07 -675.067 2079.35 -693.98 2285.38 -564.832C2281.67 -539.898 2276.98 -514.974 2271.31 -490.109ZM2246.7 -400.66C2057.37 -458.62 1835.72 -418.37 1636.89 -289.246C1438.05 -160.123 1279.41 46.5944 1199.99 279.073C1178.77 271.991 1158.09 263.667 1138.01 254.128C1202.64 -9.64277 1373.21 -252.694 1595.97 -397.356C1818.74 -542.023 2069.68 -572.707 2269.07 -480.389C2262.71 -453.677 2255.24 -427.078 2246.7 -400.66ZM1417 -870.226C1100.74 -664.844 902.616 -277.813 928.75 78.2197C917.666 62.7521 907.14 46.6307 897.342 29.6908C869.364 -143.829 898.659 -337.726 980.9 -518.919C1067.26 -709.202 1207.03 -873.877 1374.47 -982.612C1541.91 -1091.35 1726.59 -1137.37 1894.48 -1112.2C2054.37 -1088.25 2189.91 -1001.4 2278.41 -867.183C2282.77 -846.714 2286.19 -825.979 2288.88 -805.058C2088.37 -1047.85 1733.28 -1075.62 1417 -870.226ZM1895.91 -1116.83C1727.06 -1142.12 1541.37 -1095.84 1373 -986.501C1204.63 -877.164 1064.08 -711.571 977.236 -520.23C896.614 -342.598 866.441 -152.781 891.047 18.3107C879.974 -1.80529 869.832 -22.9046 860.664 -44.9821C822.598 -218.713 843.977 -415.258 922.378 -603.532C1007.51 -807.976 1152.33 -984.174 1330.17 -1099.66C1508 -1215.15 1702.74 -1259.46 1878.49 -1224.44C2040.37 -1192.19 2172.74 -1095.48 2255.25 -950.598C2263.11 -927.683 2269.79 -904.345 2275.3 -880.632C2186.24 -1009.87 2052.65 -1093.33 1895.91 -1116.83ZM2156.25 -195.35C2012.37 -195.069 1863.27 -147.539 1724.6 -57.4859C1585.92 32.5742 1466.78 159.24 1379.51 309.082C1349.85 308.664 1320.75 305.994 1292.25 301.486C1378.19 110.912 1517.18 -53.5885 1684.86 -162.482C1852.55 -271.38 2036.64 -316.689 2204.46 -290.91C2189.95 -258.469 2173.95 -226.52 2156.25 -195.35ZM2070.94 -66.8507C1967.76 -46.9937 1866.02 -4.95315 1768.46 58.4018C1670.9 121.757 1583.75 202.387 1509.23 297.93C1470.26 304.996 1431.74 308.616 1393.94 308.933C1479.32 164.428 1594.97 42.2117 1729.31 -45.0296C1863.64 -132.265 2007.93 -178.848 2147.43 -180.399C2124.35 -141.177 2098.82 -103.199 2070.94 -66.8507ZM1530.44 293.761C1601.09 206.011 1682.76 131.505 1773.76 72.4073C1864.76 13.3124 1959.48 -26.7224 2055.56 -47.2471C1986.86 38.2239 1905.17 113.992 1812.32 174.289C1719.47 234.589 1623.97 273.893 1530.44 293.761ZM2210.13 -303.585C2039.25 -330.316 1851.6 -284.31 1680.75 -173.358C1509.89 -62.4007 1368.34 105.375 1281.12 299.721C1256.49 295.344 1232.35 289.543 1208.87 282.142C1287.09 52.2245 1443.86 -152.272 1640.42 -279.919C1836.98 -407.572 2056.14 -447.201 2243.19 -389.548C2233.47 -360.587 2222.38 -331.907 2210.13 -303.585Z" fill="#F2F2F2" fill-opacity="0.5"/>
<g filter="url(#filter3_f_196_2313)">
<circle r="480" fill="white" fill-opacity="0.5"/>
</g>
</g>
<defs>
<filter id="filter0_f_196_2313" x="48" y="-1464" width="2720" height="2720" filterUnits="userSpaceOnUse" color-interpolation-filters="sRGB">
<feFlood flood-opacity="0" result="BackgroundImageFix"/>
<feBlend mode="normal" in="SourceGraphic" in2="BackgroundImageFix" result="shape"/>
<feGaussianBlur stdDeviation="360" result="effect1_foregroundBlur_196_2313"/>
</filter>
<filter id="filter1_f_196_2313" x="727.593" y="-652.407" width="1304.81" height="1304.81" filterUnits="userSpaceOnUse" color-interpolation-filters="sRGB">
<feFlood flood-opacity="0" result="BackgroundImageFix"/>
<feBlend mode="normal" in="SourceGraphic" in2="BackgroundImageFix" result="shape"/>
<feGaussianBlur stdDeviation="56.2037" result="effect1_foregroundBlur_196_2313"/>
</filter>
<filter id="filter2_f_196_2313" x="-474" y="-655.847" width="1602.32" height="1602.32" filterUnits="userSpaceOnUse" color-interpolation-filters="sRGB">
<feFlood flood-opacity="0" result="BackgroundImageFix"/>
<feBlend mode="normal" in="SourceGraphic" in2="BackgroundImageFix" result="shape"/>
<feGaussianBlur stdDeviation="128" result="effect1_foregroundBlur_196_2313"/>
</filter>
<filter id="filter3_f_196_2313" x="-736" y="-736" width="1472" height="1472" filterUnits="userSpaceOnUse" color-interpolation-filters="sRGB">
<feFlood flood-opacity="0" result="BackgroundImageFix"/>
<feBlend mode="normal" in="SourceGraphic" in2="BackgroundImageFix" result="shape"/>
<feGaussianBlur stdDeviation="128" result="effect1_foregroundBlur_196_2313"/>
</filter>
<clipPath id="clip0_196_2313">
<rect width="1920" height="256" fill="white"/>
</clipPath>
</defs>
</svg>
