<svg width="640" height="384" viewBox="0 0 640 384" fill="none" xmlns="http://www.w3.org/2000/svg">
<path d="M372.411 53.8799V36.8137C372.411 34.156 370.284 32 367.663 32H331.801C329.179 32 327.052 34.156 327.052 36.8137V55.4801C327.052 58.1378 329.179 60.2938 331.801 60.2938H365.866C369.361 60.2938 372.194 63.1655 372.194 66.7077V81.9639C372.194 85.506 369.361 88.3778 365.866 88.3778H326.312C322.817 88.3778 319.984 85.506 319.984 81.9639V65.062C319.984 62.4044 317.857 60.2484 315.235 60.2484H272.523C269.901 60.2484 267.774 62.4044 267.774 65.062V82.0245C267.774 85.5666 264.941 88.4384 261.447 88.4384H244.749C242.127 88.4384 240 90.5943 240 93.252V111.813C240 114.47 242.127 116.626 244.749 116.626H261.417C264.911 116.626 267.744 119.498 267.744 123.04V140.106C267.744 142.764 269.871 144.92 272.493 144.92H308.355C310.977 144.92 313.104 142.764 313.104 140.106V121.44C313.104 118.782 310.977 116.626 308.355 116.626H274.136C270.641 116.626 267.808 113.754 267.808 110.212V94.9561C267.808 91.4139 270.641 88.5422 274.136 88.5422H313.654C317.149 88.5422 319.982 91.4139 319.982 94.9561V111.858C319.982 114.516 322.109 116.672 324.731 116.672H367.443C370.065 116.672 372.192 114.516 372.192 111.858V94.8955C372.192 91.3534 375.025 88.4816 378.519 88.4816H395.251C397.873 88.4816 400 86.3256 400 83.6679V65.1075C400 62.4498 397.873 60.2938 395.251 60.2938H378.737C375.242 60.2938 372.409 57.422 372.409 53.8799H372.411Z" fill="#610AC7"/>
<path d="M81.7979 252C103.164 252 113.12 262.864 113.12 280.247C113.12 299.32 100.814 308.614 81.7979 308.614L57.0762 308.494V340H40.6328V252H81.7979ZM248.381 340H230.483L222.988 321.048H180.146L172.65 340H154.977L190.996 252H212.25L248.381 340ZM321.268 291.353H321.572L321.571 291.428L321.576 291.353H321.881L345.932 252H364.612L329.823 306.079V340H313.325V306.079L278.536 252H297.217L321.268 291.353ZM488.172 340H470.498L463.003 321.048H420.16L412.665 340H394.768L430.898 252H452.152L488.172 340ZM602.516 340H586.072V308.494L561.351 308.614C542.334 308.614 530.028 299.32 530.028 280.247C530.028 262.864 539.985 252 561.351 252H602.516V340ZM197.484 277.108L184.955 307.77H218.402L205.762 277.108L201.958 266.606H201.287L197.484 277.108ZM437.387 277.108L424.746 307.77H458.193L445.664 277.108L441.861 266.606H441.19L437.387 277.108ZM57.0762 295.698L80.1201 295.819C91.3063 295.819 96.5644 290.145 96.5645 280.851C96.5645 270.711 90.2996 266.003 80.1201 266.003H57.0762V295.698ZM563.028 266.003C552.849 266.003 546.584 270.711 546.584 280.851C546.584 290.145 551.842 295.819 563.028 295.819L586.072 295.698V266.003H563.028Z" fill="#610AC7"/>
</svg>
