<svg width="1008" height="256" viewBox="0 0 1008 256" fill="none" xmlns="http://www.w3.org/2000/svg">
<path d="M128.835 64C162.486 64 178.167 79.8023 178.167 105.086C178.167 132.828 158.786 146.349 128.835 146.349L89.8994 146.173V192H64V64H128.835ZM391.204 192H363.015L351.21 164.434H283.732L271.928 192H244.091L300.822 64H334.297L391.204 192ZM506 121.24H506.961L544.841 64H574.264L519.471 142.661V192H493.49V142.661L438.697 64H468.12L506 121.24ZM768.87 192H741.033L729.229 164.434H661.751L649.946 192H621.757L678.664 64H712.139L768.87 192ZM948.961 192H923.062V146.173L884.126 146.349C854.175 146.349 834.794 132.828 834.794 105.086C834.794 79.8023 850.475 64 884.126 64H948.961V192ZM311.04 100.521L291.308 145.119H343.986L324.078 100.521L318.088 85.2451H317.03L311.04 100.521ZM688.883 100.521L668.975 145.119H721.653L701.921 100.521L695.931 85.2451H694.873L688.883 100.521ZM89.8994 127.562L126.192 127.736C143.811 127.736 152.092 119.484 152.092 105.964C152.092 91.2152 142.225 84.3672 126.192 84.3672H89.8994V127.562ZM886.769 84.3672C870.736 84.3672 860.869 91.2152 860.869 105.964C860.869 119.484 869.15 127.736 886.769 127.736L923.062 127.562V84.3672H886.769Z" fill="black"/>
</svg>
