<svg width="256" height="256" viewBox="0 0 256 256" fill="none" xmlns="http://www.w3.org/2000/svg">
<path d="M196.135 83.9021V62.1386C196.135 58.7494 193.37 56 189.961 56H143.341C139.932 56 137.167 58.7494 137.167 62.1386V85.9428C137.167 89.332 139.932 92.0813 143.341 92.0813H187.626C192.169 92.0813 195.852 95.7435 195.852 100.261V119.716C195.852 124.233 192.169 127.895 187.626 127.895H136.205C131.662 127.895 127.979 124.233 127.979 119.716V98.162C127.979 94.7728 125.214 92.0234 121.806 92.0234H66.28C62.8716 92.0234 60.1065 94.7728 60.1065 98.162V119.793C60.1065 124.31 56.4235 127.972 51.8807 127.972H30.1735C26.765 127.972 24 130.722 24 134.111V157.78C24 161.169 26.765 163.919 30.1735 163.919H51.8419C56.3846 163.919 60.0677 167.581 60.0677 172.098V193.861C60.0677 197.251 62.8327 200 66.2412 200H112.862C116.27 200 119.035 197.251 119.035 193.861V170.057C119.035 166.668 116.27 163.919 112.862 163.919H68.3767C63.8339 163.919 60.1509 160.256 60.1509 155.739V136.284C60.1509 131.767 63.8339 128.105 68.3767 128.105H119.751C124.293 128.105 127.976 131.767 127.976 136.284V157.838C127.976 161.227 130.741 163.977 134.15 163.977H189.676C193.084 163.977 195.849 161.227 195.849 157.838V136.207C195.849 131.69 199.532 128.028 204.075 128.028H225.826C229.235 128.028 232 125.278 232 121.889V98.2199C232 94.8307 229.235 92.0813 225.826 92.0813H204.358C199.815 92.0813 196.132 88.4192 196.132 83.9021H196.135Z" fill="#610AC7"/>
</svg>
