<svg width="1712" height="288" viewBox="0 0 1712 288" fill="none" xmlns="http://www.w3.org/2000/svg">
<path d="M374.094 104.802V85.4565C374.094 82.4439 371.683 80 368.711 80H328.06C325.088 80 322.677 82.4439 322.677 85.4565V106.616C322.677 109.628 325.088 112.072 328.06 112.072H366.675C370.636 112.072 373.848 115.328 373.848 119.343V136.636C373.848 140.652 370.636 143.907 366.675 143.907H321.838C317.877 143.907 314.666 140.652 314.666 136.636V117.477C314.666 114.465 312.255 112.021 309.283 112.021H260.866C257.894 112.021 255.483 114.465 255.483 117.477V136.705C255.483 140.72 252.272 143.975 248.311 143.975H229.383C226.411 143.975 224 146.419 224 149.432V170.471C224 173.484 226.411 175.928 229.383 175.928H248.277C252.238 175.928 255.45 179.183 255.45 183.198V202.543C255.45 205.556 257.861 208 260.833 208H301.484C304.456 208 306.867 205.556 306.867 202.543V181.384C306.867 178.372 304.456 175.928 301.484 175.928H262.695C258.734 175.928 255.522 172.672 255.522 168.657V151.364C255.522 147.348 258.734 144.093 262.695 144.093H307.491C311.452 144.093 314.663 147.348 314.663 151.364V170.523C314.663 173.535 317.074 175.979 320.046 175.979H368.462C371.434 175.979 373.845 173.535 373.845 170.523V151.295C373.845 147.28 377.057 144.025 381.018 144.025H399.984C402.956 144.025 405.367 141.581 405.367 138.568V117.529C405.367 114.516 402.956 112.072 399.984 112.072H381.265C377.303 112.072 374.092 108.817 374.092 104.802H374.094Z" fill="#1FE8CC"/>
<path d="M576.835 80C610.486 80 626.167 95.8023 626.167 121.086C626.167 148.828 606.786 162.349 576.835 162.349L537.899 162.173V208H512V80H576.835ZM839.204 208H811.015L799.21 180.434H731.732L719.928 208H692.091L748.822 80H782.297L839.204 208ZM954 137.24H954.961L992.841 80H1022.26L967.471 158.661V208H941.49V158.661L886.697 80H916.12L954 137.24ZM1216.87 208H1189.03L1177.23 180.434H1109.75L1097.95 208H1069.76L1126.66 80H1160.14L1216.87 208ZM1396.96 208H1371.06V162.173L1332.13 162.349C1302.17 162.349 1282.79 148.828 1282.79 121.086C1282.79 95.8023 1298.48 80 1332.13 80H1396.96V208ZM759.04 116.521L739.308 161.119H791.986L772.078 116.521L766.088 101.245H765.03L759.04 116.521ZM1136.88 116.521L1116.97 161.119H1169.65L1149.92 116.521L1143.93 101.245H1142.87L1136.88 116.521ZM537.899 143.562L574.192 143.736C591.811 143.736 600.092 135.484 600.092 121.964C600.092 107.215 590.225 100.367 574.192 100.367H537.899V143.562ZM1334.77 100.367C1318.74 100.367 1308.87 107.215 1308.87 121.964C1308.87 135.484 1317.15 143.736 1334.77 143.736L1371.06 143.562V100.367H1334.77Z" fill="#1FE8CC"/>
</svg>
