<svg width="728" height="530" viewBox="0 0 728 530" fill="none" xmlns="http://www.w3.org/2000/svg">
<g clip-path="url(#clip0_2124_8)">
<path d="M63.8726 431.337C59.5458 419.126 51.6317 412.351 39.4208 412.351C22.1136 412.351 11.2916 426.201 11.2916 448.834C11.2916 471.467 22.6332 484.967 39.4208 484.967C51.4119 484.967 59.1162 479.511 64.6121 468.349L73.2657 473.675C67.3301 486.906 53.91 495.159 39.4208 494.49C15.1488 494.52 0 476.993 0 449.253C0 421.514 15.4885 403.467 39.4208 403.467C54.4796 402.568 68.2894 411.821 73.1757 426.101L63.8726 431.337Z" fill="#FF5C00"/>
<path d="M164.278 470.757C157.593 485.566 142.694 494.929 126.456 494.52C102.004 494.52 86.3359 477.902 86.3359 448.344C86.3359 421.904 102.224 403.467 125.547 403.467C150.738 403.467 163.519 422.813 163.519 448.514V449.983H97.4577V451.242C97.4577 473.875 110.448 484.997 126.846 484.997C139.596 485.047 151.118 477.412 156.054 465.651L164.278 470.757ZM98.0273 441.029H151.887C151.887 426.96 142.364 412.161 125.577 412.161C109.699 412.161 99.3063 423.502 97.8374 441.029" fill="#FF5C00"/>
<path d="M252.083 492.141H241.311V445.396C241.311 431.726 240.402 423.762 235.855 418.736C231.738 414.689 226.082 412.62 220.327 413.07C213.672 412.79 207.216 415.398 202.62 420.215C197.703 425.791 195.105 433.035 195.355 440.47V492.141H184.573V405.206H195.355V419.615C198.643 411.221 208.345 403.217 222.875 403.217C230.969 402.738 238.863 405.805 244.519 411.611C250.015 417.807 252.173 423.602 252.173 442.988L252.083 492.141Z" fill="#FF5C00"/>
<path d="M265.503 405.236H282.79V372.74L293.562 370.402V405.026H314.387V413.42H293.582V472.376C293.182 475.624 293.752 478.921 295.231 481.849C296.96 483.698 299.478 484.587 301.986 484.227C306.293 484.207 310.54 483.218 314.407 481.33V490.982C309.44 493.101 304.084 494.1 298.688 493.92C296.43 494.16 294.142 493.89 292.003 493.141C289.855 492.391 287.896 491.182 286.268 489.593C283.55 485.726 282.311 481 282.79 476.293V413.63H265.503V405.236Z" fill="#FF5C00"/>
<path d="M374.602 414.369C372.624 414.01 370.615 413.82 368.607 413.81C353.458 413.81 342.626 425.491 342.626 443.018V492.132H331.754V405.196H342.536V421.984C346.163 410.572 356.825 402.868 368.796 402.998C370.755 402.998 372.714 403.168 374.642 403.507L374.602 414.369Z" fill="#FF5C00"/>
<path d="M387.972 430.427C387.583 413.11 401.822 403.247 420.828 403.247C438.695 403.247 451.635 408.703 451.635 430.597V473.845C451.635 480.939 452.195 485.136 458.63 485.136C460.918 485.116 463.176 484.547 465.205 483.498V491.891C462.297 493.31 459.089 493.99 455.862 493.89C447.468 493.89 441.283 489.303 441.622 479.83C438.555 486.575 429.032 494.24 413.533 494.24C396.226 494.24 385.794 484.027 385.794 467.969C385.384 461.744 387.632 455.648 391.989 451.182C397.605 446.075 406.399 443.697 416.971 441.659L436.876 438.021C439.994 437.462 441.203 437.112 441.203 433.265V430.537C441.203 418.546 435.577 412.27 420.038 412.27C405.459 412.27 397.755 419.975 397.755 432.915L387.972 430.427ZM441.423 445.416C437.825 446.535 434.148 447.394 430.431 447.974L419.659 449.972C414.293 450.722 409.067 452.261 404.16 454.559C399.244 457.107 396.296 462.323 396.636 467.849C396.636 479.321 404.51 485.156 415.622 485.156C429.851 485.156 441.153 475.853 441.153 461.444L441.423 445.416Z" fill="#FF5C00"/>
<path d="M490.636 476.603V526.806H479.894V405.236H490.636V420.944C495.722 409.972 506.844 403.087 518.935 403.417C540.829 403.417 555.638 420.035 555.638 449.203C555.638 478.372 540.829 494.52 519.275 494.52C506.994 495.119 495.602 488.094 490.636 476.843V476.603ZM517.286 485.216C534.593 485.216 544.266 472.226 544.266 448.903C544.266 425.581 533.664 412.77 516.867 412.77C500.069 412.77 490.256 425.361 490.256 449.073C490.256 472.786 500.709 485.216 517.326 485.216H517.286Z" fill="#FF5C00"/>
<path d="M573.375 430.427C572.985 413.11 587.224 403.247 606.22 403.247C624.097 403.247 637.038 408.703 637.038 430.597V473.845C637.038 480.939 637.597 485.136 644.032 485.136C646.321 485.116 648.579 484.547 650.607 483.498V491.891C647.7 493.31 644.492 493.99 641.264 493.89C632.871 493.89 626.675 489.303 627.025 479.83C623.957 486.575 614.434 494.24 598.936 494.24C581.629 494.24 571.196 484.027 571.196 467.969C570.827 461.714 573.155 455.598 577.602 451.182C583.227 446.075 592.011 443.697 602.583 441.659L622.488 438.021C625.606 437.462 626.815 437.112 626.815 433.265V430.537C626.815 418.546 621.189 412.27 605.661 412.27C591.072 412.27 583.367 419.975 583.367 432.915L573.375 430.427ZM626.825 445.416C623.228 446.535 619.55 447.394 615.833 447.974L605.061 449.972C599.695 450.712 594.469 452.241 589.563 454.529C584.726 457.157 581.888 462.363 582.288 467.849C582.288 479.321 590.162 485.156 601.274 485.156C615.513 485.156 626.815 475.853 626.815 461.444V445.416H626.825Z" fill="#FF5C00"/>
<path d="M684.153 463.093L689.089 477.512C689.998 474.784 691.637 470.018 694.585 462.523L716.878 405.226H728L689.029 503.983C687.02 509.658 684.592 515.164 681.754 520.47C678.667 526.266 672.421 529.673 665.876 529.124C661.919 529.154 658.022 528.145 654.574 526.186V515.284C657.782 517.592 661.609 518.881 665.566 518.971C668.684 519.191 671.672 517.712 673.401 515.114C675.409 511.927 677.008 508.489 678.157 504.902L682.923 492.131L651.946 405.196H663.628L684.153 463.093Z" fill="#FF5C00"/>
<path d="M501.468 75.3504V31.1932C501.468 24.3183 495.892 18.7324 489.007 18.7324H394.947C388.072 18.7324 382.486 24.3083 382.486 31.1932V79.4974C382.486 86.3723 388.062 91.9581 394.947 91.9581H484.301C493.464 91.9581 500.898 99.3926 500.898 108.556V148.037C500.898 157.2 493.464 164.634 484.301 164.634H380.558C371.394 164.634 363.96 157.2 363.96 148.037V104.299C363.96 97.4241 358.384 91.8382 351.499 91.8382H239.472C232.597 91.8382 227.012 97.4141 227.012 104.299V148.196C227.012 157.36 219.577 164.794 210.414 164.794H166.616C159.741 164.794 154.156 170.37 154.156 177.255V225.279C154.156 232.154 159.732 237.74 166.616 237.74H210.334C219.497 237.74 226.932 245.174 226.932 254.338V298.495C226.932 305.37 232.508 310.956 239.392 310.956H333.453C340.328 310.956 345.913 305.38 345.913 298.495V250.191C345.913 243.316 340.338 237.73 333.453 237.73H243.699C234.536 237.73 227.102 230.296 227.102 221.132V181.652C227.102 172.488 234.536 165.054 243.699 165.054H347.352C356.516 165.054 363.95 172.488 363.95 181.652V225.389C363.95 232.264 369.526 237.85 376.411 237.85H488.438C495.313 237.85 500.898 232.274 500.898 225.389V181.502C500.898 172.338 508.333 164.904 517.496 164.904H561.384C568.258 164.904 573.844 159.328 573.844 152.443V104.419C573.844 97.544 568.268 91.9581 561.384 91.9581H518.066C508.902 91.9581 501.468 84.5236 501.468 75.3604V75.3504Z" fill="#FF5C00"/>
</g>
<defs>
<clipPath id="clip0_2124_8">
<rect width="728" height="528.998" fill="white" transform="translate(0 0.196289)"/>
</clipPath>
</defs>
</svg>
