<svg width="728" height="530" viewBox="0 0 728 530" fill="none" xmlns="http://www.w3.org/2000/svg">
<g clip-path="url(#clip0_2124_10)">
<path d="M63.8726 431.311C59.5458 419.1 51.6317 412.325 39.4208 412.325C22.1136 412.325 11.2916 426.175 11.2916 448.808C11.2916 471.442 22.6332 484.942 39.4208 484.942C51.4119 484.942 59.1162 479.486 64.6121 468.324L73.2657 473.65C67.3301 486.88 53.91 495.134 39.4208 494.465C15.1488 494.495 0 476.968 0 449.228C0 421.489 15.4885 403.442 39.4208 403.442C54.4796 402.543 68.2894 411.796 73.1757 426.075L63.8726 431.311Z" fill="white"/>
<path d="M164.278 470.732C157.593 485.541 142.694 494.905 126.456 494.495C102.004 494.495 86.3359 477.877 86.3359 448.319C86.3359 421.879 102.224 403.442 125.547 403.442C150.738 403.442 163.519 422.788 163.519 448.489V449.958H97.4577V451.217C97.4577 473.85 110.448 484.972 126.846 484.972C139.596 485.022 151.118 477.388 156.054 465.626L164.278 470.732ZM98.0273 441.005H151.887C151.887 426.935 142.364 412.136 125.577 412.136C109.699 412.136 99.3063 423.478 97.8374 441.005" fill="white"/>
<path d="M252.083 492.116H241.311V445.371C241.311 431.701 240.402 423.737 235.855 418.711C231.738 414.664 226.082 412.595 220.327 413.045C213.672 412.765 207.216 415.373 202.62 420.19C197.703 425.766 195.105 433.01 195.355 440.445V492.116H184.573V405.181H195.355V419.59C198.643 411.197 208.345 403.192 222.875 403.192C230.969 402.713 238.863 405.781 244.519 411.586C250.015 417.782 252.173 423.577 252.173 442.963L252.083 492.116Z" fill="white"/>
<path d="M265.503 405.211H282.79V372.715L293.562 370.376V405.001H314.387V413.395H293.582V472.351C293.182 475.598 293.752 478.896 295.231 481.824C296.96 483.672 299.478 484.562 301.986 484.202C306.293 484.182 310.54 483.193 314.407 481.304V490.957C309.44 493.075 304.084 494.075 298.688 493.895C296.43 494.135 294.142 493.865 292.003 493.115C289.855 492.366 287.896 491.157 286.268 489.568C283.55 485.701 282.311 480.974 282.79 476.268V413.604H265.503V405.211Z" fill="white"/>
<path d="M374.602 414.344C372.624 413.984 370.615 413.794 368.607 413.784C353.458 413.784 342.626 425.466 342.626 442.993V492.106H331.754V405.171H342.536V421.958C346.163 410.547 356.825 402.842 368.796 402.972C370.755 402.972 372.714 403.142 374.642 403.482L374.602 414.344Z" fill="white"/>
<path d="M387.972 430.402C387.583 413.085 401.822 403.223 420.828 403.223C438.695 403.223 451.635 408.679 451.635 430.572V473.82C451.635 480.915 452.195 485.112 458.63 485.112C460.918 485.092 463.176 484.522 465.205 483.473V491.867C462.297 493.286 459.089 493.965 455.862 493.865C447.468 493.865 441.283 489.279 441.622 479.806C438.555 486.551 429.032 494.215 413.533 494.215C396.226 494.215 385.794 484.003 385.794 467.945C385.384 461.719 387.632 455.624 391.989 451.157C397.605 446.051 406.399 443.673 416.971 441.634L436.876 437.997C439.994 437.437 441.203 437.088 441.203 433.24V430.512C441.203 418.521 435.577 412.246 420.038 412.246C405.459 412.246 397.755 419.95 397.755 432.891L387.972 430.402ZM441.423 445.391C437.825 446.511 434.148 447.37 430.431 447.949L419.659 449.948C414.293 450.697 409.067 452.236 404.16 454.535C399.244 457.083 396.296 462.299 396.636 467.825C396.636 479.296 404.51 485.132 415.622 485.132C429.851 485.132 441.153 475.829 441.153 461.419L441.423 445.391Z" fill="white"/>
<path d="M490.636 476.578V526.781H479.894V405.211H490.636V420.919C495.722 409.947 506.844 403.062 518.935 403.392C540.829 403.392 555.638 420.01 555.638 449.178C555.638 478.347 540.829 494.495 519.275 494.495C506.994 495.094 495.602 488.069 490.636 476.818V476.578ZM517.286 485.192C534.593 485.192 544.266 472.201 544.266 448.878C544.266 425.556 533.664 412.745 516.867 412.745C500.069 412.745 490.256 425.336 490.256 449.048C490.256 472.761 500.709 485.192 517.326 485.192H517.286Z" fill="white"/>
<path d="M573.375 430.402C572.985 413.085 587.224 403.223 606.22 403.223C624.097 403.223 637.038 408.679 637.038 430.572V473.82C637.038 480.915 637.597 485.112 644.032 485.112C646.321 485.092 648.579 484.522 650.607 483.473V491.867C647.7 493.286 644.492 493.965 641.264 493.865C632.871 493.865 626.675 489.279 627.025 479.806C623.957 486.551 614.434 494.215 598.936 494.215C581.629 494.215 571.196 484.003 571.196 467.945C570.827 461.689 573.155 455.574 577.602 451.157C583.227 446.051 592.011 443.673 602.583 441.634L622.488 437.997C625.606 437.437 626.815 437.088 626.815 433.24V430.512C626.815 418.521 621.189 412.246 605.661 412.246C591.072 412.246 583.367 419.95 583.367 432.891L573.375 430.402ZM626.825 445.391C623.228 446.511 619.55 447.37 615.833 447.949L605.061 449.948C599.695 450.687 594.469 452.216 589.563 454.505C584.726 457.133 581.888 462.339 582.288 467.825C582.288 479.296 590.162 485.132 601.274 485.132C615.513 485.132 626.815 475.829 626.815 461.419V445.391H626.825Z" fill="white"/>
<path d="M684.153 463.068L689.089 477.487C689.998 474.759 691.637 469.993 694.585 462.498L716.878 405.201H728L689.029 503.958C687.02 509.633 684.592 515.139 681.754 520.445C678.667 526.241 672.421 529.649 665.876 529.099C661.919 529.129 658.022 528.12 654.574 526.161V515.259C657.782 517.568 661.609 518.857 665.566 518.946C668.684 519.166 671.672 517.687 673.401 515.089C675.409 511.902 677.008 508.464 678.157 504.877L682.923 492.106L651.946 405.171H663.628L684.153 463.068Z" fill="white"/>
<path d="M501.468 75.3255V31.1683C501.468 24.2934 495.892 18.7075 489.007 18.7075H394.947C388.072 18.7075 382.486 24.2834 382.486 31.1683V79.4725C382.486 86.3474 388.062 91.9332 394.947 91.9332H484.301C493.464 91.9332 500.898 99.3677 500.898 108.531V148.012C500.898 157.175 493.464 164.609 484.301 164.609H380.558C371.394 164.609 363.96 157.175 363.96 148.012V104.274C363.96 97.3992 358.384 91.8133 351.499 91.8133H239.472C232.597 91.8133 227.012 97.3892 227.012 104.274V148.171C227.012 157.335 219.577 164.769 210.414 164.769H166.616C159.741 164.769 154.156 170.345 154.156 177.23V225.254C154.156 232.129 159.732 237.715 166.616 237.715H210.334C219.497 237.715 226.932 245.15 226.932 254.313V298.47C226.932 305.345 232.508 310.931 239.392 310.931H333.453C340.328 310.931 345.913 305.355 345.913 298.47V250.166C345.913 243.291 340.338 237.705 333.453 237.705H243.699C234.536 237.705 227.102 230.271 227.102 221.107V181.627C227.102 172.463 234.536 165.029 243.699 165.029H347.352C356.516 165.029 363.95 172.463 363.95 181.627V225.364C363.95 232.239 369.526 237.825 376.411 237.825H488.438C495.313 237.825 500.898 232.249 500.898 225.364V181.477C500.898 172.314 508.333 164.879 517.496 164.879H561.384C568.258 164.879 573.844 159.303 573.844 152.418V104.394C573.844 97.5191 568.268 91.9332 561.384 91.9332H518.066C508.902 91.9332 501.468 84.4987 501.468 75.3355V75.3255Z" fill="white"/>
</g>
<defs>
<clipPath id="clip0_2124_10">
<rect width="728" height="528.998" fill="white" transform="translate(0 0.171387)"/>
</clipPath>
</defs>
</svg>
