<svg width="1270" height="220" viewBox="0 0 1270 220" fill="none" xmlns="http://www.w3.org/2000/svg">
<path d="M1214.13 128.54L1220.18 146.23C1221.3 142.88 1223.32 137.04 1226.93 127.85L1254.3 57.4902H1267.96L1220.13 178.75C1217.67 185.72 1214.69 192.49 1211.2 199C1207.4 206.11 1199.74 210.29 1191.7 209.63C1186.84 209.67 1182.06 208.42 1177.83 206.02V192.62C1181.76 195.45 1186.44 197.02 1191.28 197.14C1195.1 197.41 1198.78 195.61 1200.89 192.41C1203.36 188.49 1205.33 184.28 1206.74 179.87L1212.59 164.19L1174.59 57.4902H1188.94L1214.13 128.54ZM1011.28 55.2598C1038.18 55.2599 1056.35 75.6606 1056.35 111.48C1056.35 147.3 1038.18 167.12 1011.71 167.12C996.62 167.85 982.63 159.21 976.53 145.38V206.76H963.311V57.4902H976.53V76.7803C982.79 63.3203 996.44 54.8598 1011.28 55.2598ZM422.44 55.3203C440.93 54.2205 457.89 65.5905 463.89 83.1104L452.46 89.5303C447.15 74.5303 437.46 66.2598 422.46 66.2598C401.2 66.2598 387.92 83.26 387.92 111.05C387.92 138.84 401.82 155.44 422.44 155.44C437.21 155.44 446.62 148.74 453.37 135.03L464 141.57C456.7 157.81 440.23 167.95 422.44 167.13C392.63 167.13 374.03 145.61 374.03 111.54C374.03 77.47 393.03 55.3203 422.44 55.3203ZM528.19 55.3105C559.12 55.3107 574.85 79.0601 574.85 110.63V112.44H493.7V113.98C493.7 141.77 509.65 155.43 529.79 155.43C545.45 155.49 559.6 146.11 565.66 131.67L575.75 137.94C567.55 156.12 549.25 167.62 529.311 167.12C499.311 167.12 480.05 146.71 480.05 110.42C480.05 77.95 499.55 55.3105 528.19 55.3105ZM890.77 55.0605C912.77 55.0605 928.6 61.7604 928.6 88.6504V141.79C928.6 150.5 929.3 155.66 937.16 155.66C939.97 155.63 942.74 154.95 945.24 153.66V163.97C941.67 165.72 937.73 166.58 933.76 166.47C923.45 166.47 915.85 160.83 916.28 149.2C912.5 157.49 900.81 166.89 881.79 166.89C860.54 166.89 847.729 154.35 847.729 134.64C847.21 127 849.98 119.5 855.33 114.021C862.23 107.751 873.02 104.82 885.99 102.33L910.43 97.8604C914.26 97.1704 915.75 96.7501 915.75 92.0205V88.6699C915.75 73.9 908.84 66.2402 889.75 66.2402C871.84 66.2402 862.38 75.7 862.38 91.5898L850.44 88.4404C849.96 67.1806 867.44 55.0607 890.77 55.0605ZM1118.44 55.0605C1140.38 55.0605 1156.28 61.7604 1156.28 88.6504V141.79C1156.28 150.5 1156.96 155.66 1164.83 155.66C1167.64 155.63 1170.41 154.95 1172.91 153.66V163.97C1169.34 165.72 1165.4 166.58 1161.43 166.47C1151.12 166.47 1143.52 160.83 1143.94 149.2C1140.18 157.49 1128.48 166.89 1109.45 166.89C1088.2 166.89 1075.45 154.35 1075.45 134.64C1074.99 126.96 1077.85 119.44 1083.31 114.021C1090.21 107.751 1101.01 104.82 1113.97 102.33L1138.42 97.8604C1142.24 97.1704 1143.73 96.7501 1143.73 92.0205V88.6699C1143.73 73.9 1136.82 66.2402 1117.73 66.2402C1099.82 66.2404 1090.36 75.7001 1090.36 91.5898L1078.1 88.4404C1077.62 67.1806 1095.1 55.0607 1118.44 55.0605ZM734.53 57.2197H760.09V67.5303H734.53V139.96C734.03 143.95 734.73 148 736.53 151.6C737.58 152.72 738.88 153.57 740.32 154.08C741.76 154.59 743.31 154.74 744.82 154.52C750.11 154.499 755.32 153.28 760.07 150.96V162.81C753.99 165.41 747.41 166.65 740.8 166.44C735.17 167.01 729.58 165.06 725.53 161.11C722.19 156.35 720.68 150.54 721.28 144.75V67.7998H700.05V57.4902H721.3V17.5801L734.53 14.71V57.2197ZM647.71 55.0498C657.64 54.4498 667.34 58.2097 674.28 65.3496C681.03 72.9496 683.68 80.13 683.68 103.88L683.58 164.2H670.34V106.8C670.34 90.0103 669.23 80.2303 663.65 74.0703C658.6 69.0904 651.64 66.5304 644.57 67.0703C636.4 66.7103 628.47 69.9099 622.84 75.8398C616.79 82.6798 613.6 91.58 613.91 100.71V164.16H600.68V57.4902H613.91V75.1904C617.91 64.8804 629.85 55.0498 647.71 55.0498ZM826.84 54.8301C829.24 54.8301 831.64 55.0498 834.01 55.4697V68.7002C831.57 68.2602 829.11 68.0298 826.63 68.0098C808.03 68.0099 794.75 82.36 794.75 103.88V164.19H781.351V57.4902H794.59V78.1104C799.07 64.1204 812.15 54.6702 826.84 54.8301ZM1008.79 66.7402C988.15 66.7402 976.11 82.2003 976.11 111.32C976.11 140.438 988.868 155.687 1009.28 155.689C1030.52 155.687 1042.43 139.748 1042.43 111.11C1042.43 82.4704 1029.43 66.7402 1008.79 66.7402ZM916.07 106.82C911.67 108.2 907.18 109.25 902.63 109.96L889.4 112.4C882.821 113.32 876.42 115.22 870.4 118.04C864.31 121.15 860.66 127.58 861.1 134.4C861.1 148.48 870.77 155.66 884.42 155.66C901.9 155.66 915.78 144.23 915.78 126.54L916.07 106.82ZM1143.72 106.82C1139.32 108.2 1134.82 109.25 1130.27 109.96L1117.05 112.4C1110.47 113.32 1104.07 115.22 1098.05 118.04C1092.08 121.24 1088.56 127.65 1089.05 134.4C1089.05 148.48 1098.72 155.66 1112.38 155.66C1129.86 155.66 1143.73 144.23 1143.73 126.54V106.82H1143.72ZM528.22 65.9902C508.72 65.9904 495.97 79.9105 494.16 101.44H560.53C560.53 84.1704 548.84 65.9902 528.22 65.9902Z" fill="white"/>
<path d="M255.11 45.6599V13.4799C255.11 8.4599 251.05 4.3999 246.03 4.3999H177.49C172.47 4.3999 168.41 8.4599 168.41 13.4799V48.6799C168.41 53.6999 172.47 57.7599 177.49 57.7599H242.6C249.28 57.7599 254.69 63.1799 254.69 69.8499V98.6199C254.69 105.3 249.27 110.71 242.6 110.71H167C160.32 110.71 154.91 105.29 154.91 98.6199V66.7499C154.91 61.7299 150.85 57.6699 145.83 57.6699H64.2C59.18 57.6699 55.12 61.7299 55.12 66.7499V98.7399C55.12 105.42 49.7 110.83 43.03 110.83H11.12C6.10004 110.83 2.04004 114.89 2.04004 119.91V154.91C2.04004 159.93 6.10004 163.99 11.12 163.99H42.98C49.66 163.99 55.07 169.41 55.07 176.08V208.26C55.07 213.28 59.13 217.34 64.15 217.34H132.69C137.71 217.34 141.77 213.28 141.77 208.26V173.06C141.77 168.04 137.71 163.98 132.69 163.98H67.29C60.61 163.98 55.2 158.56 55.2 151.89V123.12C55.2 116.44 60.62 111.03 67.29 111.03H142.82C149.5 111.03 154.91 116.45 154.91 123.12V154.99C154.91 160.01 158.97 164.07 163.99 164.07H245.63C250.65 164.07 254.71 160.01 254.71 154.99V123.01C254.71 116.33 260.13 110.92 266.8 110.92H298.78C303.8 110.92 307.86 106.86 307.86 101.84V66.8399C307.86 61.8199 303.8 57.7599 298.78 57.7599H267.21C260.53 57.7599 255.12 52.3399 255.12 45.6699H255.11V45.6599Z" fill="white"/>
</svg>
