<svg width="728" height="530" viewBox="0 0 728 530" fill="none" xmlns="http://www.w3.org/2000/svg">
<g clip-path="url(#clip0_2124_9)">
<path d="M63.8726 431.922C59.5458 419.711 51.6317 412.936 39.4208 412.936C22.1136 412.936 11.2916 426.786 11.2916 449.419C11.2916 472.052 22.6332 485.552 39.4208 485.552C51.4119 485.552 59.1162 480.096 64.6121 468.934L73.2657 474.26C67.3301 487.49 53.91 495.744 39.4208 495.075C15.1488 495.105 0 477.578 0 449.838C0 422.099 15.4885 404.052 39.4208 404.052C54.4796 403.153 68.2894 412.406 73.1757 426.686L63.8726 431.922Z" fill="black"/>
<path d="M164.278 471.342C157.593 486.151 142.694 495.514 126.456 495.105C102.004 495.105 86.3359 478.487 86.3359 448.929C86.3359 422.489 102.224 404.052 125.547 404.052C150.738 404.052 163.519 423.398 163.519 449.099V450.568H97.4577V451.827C97.4577 474.46 110.448 485.582 126.846 485.582C139.596 485.632 151.118 477.997 156.054 466.236L164.278 471.342ZM98.0273 441.614H151.887C151.887 427.545 142.364 412.746 125.577 412.746C109.699 412.746 99.3063 424.087 97.8374 441.614" fill="black"/>
<path d="M252.083 492.726H241.311V445.981C241.311 432.311 240.402 424.347 235.855 419.321C231.738 415.274 226.082 413.205 220.327 413.655C213.672 413.375 207.216 415.983 202.62 420.8C197.703 426.376 195.105 433.62 195.355 441.055V492.726H184.573V405.791H195.355V420.2C198.643 411.806 208.345 403.802 222.875 403.802C230.969 403.323 238.863 406.39 244.519 412.196C250.015 418.391 252.173 424.187 252.173 443.573L252.083 492.726Z" fill="black"/>
<path d="M265.503 405.821H282.79V373.325L293.562 370.987V405.611H314.387V414.005H293.582V472.961C293.182 476.209 293.752 479.506 295.231 482.434C296.96 484.283 299.478 485.172 301.986 484.812C306.293 484.792 310.54 483.803 314.407 481.915V491.567C309.44 493.686 304.084 494.685 298.688 494.505C296.43 494.745 294.142 494.475 292.003 493.726C289.855 492.976 287.896 491.767 286.268 490.178C283.55 486.311 282.311 481.585 282.79 476.878V414.215H265.503V405.821Z" fill="black"/>
<path d="M374.602 414.954C372.624 414.595 370.615 414.405 368.607 414.395C353.458 414.395 342.626 426.076 342.626 443.603V492.717H331.754V405.781H342.536V422.569C346.163 411.157 356.825 403.453 368.796 403.583C370.755 403.583 372.714 403.753 374.642 404.092L374.602 414.954Z" fill="black"/>
<path d="M387.972 431.012C387.583 413.695 401.822 403.832 420.828 403.832C438.695 403.832 451.635 409.288 451.635 431.182V474.43C451.635 481.524 452.195 485.721 458.63 485.721C460.918 485.701 463.176 485.132 465.205 484.083V492.476C462.297 493.895 459.089 494.575 455.862 494.475C447.468 494.475 441.283 489.888 441.622 480.415C438.555 487.16 429.032 494.825 413.533 494.825C396.226 494.825 385.794 484.612 385.794 468.554C385.384 462.329 387.632 456.233 391.989 451.766C397.605 446.66 406.399 444.282 416.971 442.244L436.876 438.606C439.994 438.047 441.203 437.697 441.203 433.85V431.122C441.203 419.131 435.577 412.855 420.038 412.855C405.459 412.855 397.755 420.56 397.755 433.5L387.972 431.012ZM441.423 446.001C437.825 447.12 434.148 447.979 430.431 448.559L419.659 450.557C414.293 451.307 409.067 452.846 404.16 455.144C399.244 457.692 396.296 462.908 396.636 468.434C396.636 479.906 404.51 485.741 415.622 485.741C429.851 485.741 441.153 476.438 441.153 462.029L441.423 446.001Z" fill="black"/>
<path d="M490.636 477.188V527.391H479.894V405.821H490.636V421.529C495.722 410.557 506.844 403.672 518.935 404.002C540.829 404.002 555.638 420.62 555.638 449.788C555.638 478.956 540.829 495.105 519.275 495.105C506.994 495.704 495.602 488.679 490.636 477.428V477.188ZM517.286 485.801C534.593 485.801 544.266 472.811 544.266 449.488C544.266 426.166 533.664 413.355 516.867 413.355C500.069 413.355 490.256 425.946 490.256 449.658C490.256 473.371 500.709 485.801 517.326 485.801H517.286Z" fill="black"/>
<path d="M573.375 431.012C572.985 413.695 587.224 403.832 606.22 403.832C624.097 403.832 637.038 409.288 637.038 431.182V474.43C637.038 481.524 637.597 485.721 644.032 485.721C646.321 485.701 648.579 485.132 650.607 484.083V492.476C647.7 493.895 644.492 494.575 641.264 494.475C632.871 494.475 626.675 489.888 627.025 480.415C623.957 487.16 614.434 494.825 598.936 494.825C581.629 494.825 571.196 484.612 571.196 468.554C570.827 462.299 573.155 456.183 577.602 451.766C583.227 446.66 592.011 444.282 602.583 442.244L622.488 438.606C625.606 438.047 626.815 437.697 626.815 433.85V431.122C626.815 419.131 621.189 412.855 605.661 412.855C591.072 412.855 583.367 420.56 583.367 433.5L573.375 431.012ZM626.825 446.001C623.228 447.12 619.55 447.979 615.833 448.559L605.061 450.557C599.695 451.297 594.469 452.826 589.563 455.114C584.726 457.742 581.888 462.948 582.288 468.434C582.288 479.906 590.162 485.741 601.274 485.741C615.513 485.741 626.815 476.438 626.815 462.029V446.001H626.825Z" fill="black"/>
<path d="M684.153 463.678L689.089 478.097C689.998 475.369 691.637 470.603 694.585 463.108L716.878 405.811H728L689.029 504.568C687.02 510.243 684.592 515.749 681.754 521.055C678.667 526.851 672.421 530.258 665.876 529.709C661.919 529.739 658.022 528.73 654.574 526.771V515.869C657.782 518.177 661.609 519.466 665.566 519.556C668.684 519.776 671.672 518.297 673.401 515.699C675.409 512.512 677.008 509.074 678.157 505.487L682.923 492.716L651.946 405.781H663.628L684.153 463.678Z" fill="black"/>
<path d="M501.468 75.9354V31.7781C501.468 24.9032 495.892 19.3174 489.007 19.3174H394.947C388.072 19.3174 382.486 24.8932 382.486 31.7781V80.0823C382.486 86.9572 388.062 92.5431 394.947 92.5431H484.301C493.464 92.5431 500.898 99.9776 500.898 109.141V148.621C500.898 157.785 493.464 165.219 484.301 165.219H380.558C371.394 165.219 363.96 157.785 363.96 148.621V104.884C363.96 98.009 358.384 92.4232 351.499 92.4232H239.472C232.597 92.4232 227.012 97.999 227.012 104.884V148.781C227.012 157.945 219.577 165.379 210.414 165.379H166.616C159.741 165.379 154.156 170.955 154.156 177.84V225.864C154.156 232.739 159.732 238.325 166.616 238.325H210.334C219.497 238.325 226.932 245.759 226.932 254.923V299.08C226.932 305.955 232.508 311.541 239.392 311.541H333.453C340.328 311.541 345.913 305.965 345.913 299.08V250.776C345.913 243.901 340.338 238.315 333.453 238.315H243.699C234.536 238.315 227.102 230.88 227.102 221.717V182.237C227.102 173.073 234.536 165.639 243.699 165.639H347.352C356.516 165.639 363.95 173.073 363.95 182.237V225.974C363.95 232.849 369.526 238.435 376.411 238.435H488.438C495.313 238.435 500.898 232.859 500.898 225.974V182.087C500.898 172.923 508.333 165.489 517.496 165.489H561.384C568.258 165.489 573.844 159.913 573.844 153.028V105.004C573.844 98.1289 568.268 92.5431 561.384 92.5431H518.066C508.902 92.5431 501.468 85.1086 501.468 75.9454V75.9354Z" fill="black"/>
</g>
<defs>
<clipPath id="clip0_2124_9">
<rect width="728" height="528.998" fill="white" transform="translate(0 0.78125)"/>
</clipPath>
</defs>
</svg>
